<?xml version="1.0" encoding="UTF-8" standalone="no"?>
<svg width="42px" height="42px" viewBox="0 0 42 42" version="1.1" xmlns="http://www.w3.org/2000/svg" xmlns:xlink="http://www.w3.org/1999/xlink" xmlns:sketch="http://www.bohemiancoding.com/sketch/ns">
    <!-- Generator: Sketch 3.2.2 (9983) - http://www.bohemiancoding.com/sketch -->
    <title>coderfactory-logo 2</title>
    <desc>Created with Sketch.</desc>
    <defs></defs>
    <g id="UI-KIt" stroke="none" stroke-width="1" fill="none" fill-rule="evenodd" sketch:type="MSPage">
        <g id="cf-logo" sketch:type="MSLayerGroup" fill="#FFFFFF">
            <g id="coderfactory-logo-2" sketch:type="MSShapeGroup">
                <path d="M27.3929399,26.8976113 C29.2096763,29.0954169 30.9793523,31.2309816 31.1322108,31.4055673 C31.4482906,31.7665745 31.5421002,33.1073552 30.4787361,34.1554858 C29.415372,35.2036163 27.6399301,34.3568563 27.6399301,34.3568563 C27.6399301,34.3568563 18.0051067,23.7897549 17.2712034,22.2833572 C16.5373001,20.7769594 17.2247611,19.2979298 17.6520494,18.4563345 C18.0793377,17.6147391 29.6470523,7.72142632 29.6470523,7.72142632 C29.6470523,7.72142632 31.3083261,7.36395743 32.3884922,8.39581336 C33.4686583,9.42766929 32.860454,11.1163496 32.860454,11.1163496 C32.860454,11.1163496 23.8336988,19.2348086 23.3832063,19.8634466 C22.9327137,20.4920846 22.9759943,20.5936492 22.9664371,20.9281398 C22.9560647,21.2911606 23.0599302,21.6131112 23.3234176,21.9559808 C23.3820628,22.0322943 23.7857819,22.5248739 24.3815465,23.2486205 L32.0685837,16.6984859 C32.0685837,16.6984859 33.7599405,16.1917238 34.7752629,17.31636 C35.7905854,18.4409963 35.0039445,20.1880145 35.0039445,20.1880145 L27.3929399,26.8976113 Z M17.7782097,33.746253 C17.7782097,33.746253 19.5681593,34.5618983 20.613069,33.4953692 C21.6579788,32.42884 21.5407836,31.0899007 21.2184515,30.7344648 C20.8961193,30.3790289 13.5153607,21.7608185 13.2459296,21.4225997 C12.9764984,21.084381 12.8670299,20.764292 12.8710651,20.4011455 C12.8747832,20.066539 12.8297367,19.9657453 13.2691894,19.3293408 C13.7086421,18.6929364 22.5923358,10.4181753 22.5923358,10.4181753 C22.5923358,10.4181753 23.1709759,8.71913754 22.0729659,7.70629027 C20.974956,6.69344299 19.3201739,7.07985067 19.3201739,7.07985067 C19.3201739,7.07985067 7.92688325,17.1735411 7.5143479,18.0224655 C7.10181255,18.8713899 6.44026886,20.3621921 7.20035067,21.855552 C7.96043248,23.3489119 17.7782097,33.746253 17.7782097,33.746253 Z" id="Path-3"></path>
                <path d="M20.9464063,41.0521036 C32.0504763,41.0521036 41.0521036,32.0504763 41.0521036,20.9464063 C41.0521036,9.84233632 32.0504763,0.840709024 20.9464063,0.840709024 C9.84233632,0.840709024 0.840709024,9.84233632 0.840709024,20.9464063 C0.840709024,32.0504763 9.84233632,41.0521036 20.9464063,41.0521036 Z M20.8663039,39.1296465 C30.9528695,39.1296465 39.1296465,30.9528695 39.1296465,20.8663039 C39.1296465,10.7797384 30.9528695,2.60296138 20.8663039,2.60296138 C10.7797384,2.60296138 2.60296138,10.7797384 2.60296138,20.8663039 C2.60296138,30.9528695 10.7797384,39.1296465 20.8663039,39.1296465 Z" id="Oval-1"></path>
            </g>
        </g>
    </g>
</svg>