<?xml version="1.0" encoding="UTF-8" standalone="no"?>
<svg width="38px" height="37px" viewBox="0 0 38 37" version="1.1" xmlns="http://www.w3.org/2000/svg" xmlns:xlink="http://www.w3.org/1999/xlink" xmlns:sketch="http://www.bohemiancoding.com/sketch/ns">
    <!-- Generator: Sketch 3.2.2 (9983) - http://www.bohemiancoding.com/sketch -->
    <title>Transform</title>
    <desc>Created with Sketch.</desc>
    <defs></defs>
    <g id="Page-1" stroke="none" stroke-width="1" fill="none" fill-rule="evenodd" sketch:type="MSPage">
        <g id="Transform" sketch:type="MSLayerGroup">
            <path d="M15.2132857,2.64285714 L35.318381,14.2502857 L23.7100714,34.355381 L3.60497619,22.7479524 L15.2132857,2.64285714" id="Fill-431" fill="#DBC034" sketch:type="MSShapeGroup"></path>
            <path d="M33.5564762,35.2380952 L30.0326667,35.2380952 C29.546381,35.2380952 29.1517143,34.8443095 29.1517143,34.3571429 C29.1517143,33.8699762 29.546381,33.4761905 30.0326667,33.4761905 L33.5564762,33.4761905 C34.0427619,33.4761905 34.4374286,33.0815238 34.4374286,32.5952381 L34.4374286,29.0714286 C34.4374286,28.5842619 34.8320952,28.1904762 35.318381,28.1904762 C35.8055476,28.1904762 36.1993333,28.5842619 36.1993333,29.0714286 L36.1993333,32.5952381 C36.1993333,34.0523333 35.0144524,35.2380952 33.5564762,35.2380952 L33.5564762,35.2380952 Z M17.6993333,35.2380952 L12.413619,35.2380952 C11.9273333,35.2380952 11.5326667,34.8443095 11.5326667,34.3571429 C11.5326667,33.8699762 11.9273333,33.4761905 12.413619,33.4761905 L17.6993333,33.4761905 C18.1865,33.4761905 18.5802857,33.8699762 18.5802857,34.3571429 C18.5802857,34.8443095 18.1865,35.2380952 17.6993333,35.2380952 L17.6993333,35.2380952 Z M8.88980952,35.2380952 L5.366,35.2380952 C3.90890476,35.2380952 2.72314286,34.0523333 2.72314286,32.5952381 L2.72314286,29.0714286 C2.72314286,28.5842619 3.11780952,28.1904762 3.60409524,28.1904762 C4.0912619,28.1904762 4.48504762,28.5842619 4.48504762,29.0714286 L4.48504762,32.5952381 C4.48504762,33.0815238 4.88059524,33.4761905 5.366,33.4761905 L8.88980952,33.4761905 C9.37697619,33.4761905 9.7707619,33.8699762 9.7707619,34.3571429 C9.7707619,34.8443095 9.37697619,35.2380952 8.88980952,35.2380952 L8.88980952,35.2380952 Z M35.318381,26.4285714 C34.8320952,26.4285714 34.4374286,26.0347857 34.4374286,25.547619 L34.4374286,20.2619048 C34.4374286,19.7747381 34.8320952,19.3809524 35.318381,19.3809524 C35.8055476,19.3809524 36.1993333,19.7747381 36.1993333,20.2619048 L36.1993333,25.547619 C36.1993333,26.0347857 35.8055476,26.4285714 35.318381,26.4285714 L35.318381,26.4285714 Z M3.60409524,17.6190476 C3.11780952,17.6190476 2.72314286,17.2252619 2.72314286,16.7380952 L2.72314286,11.452381 C2.72314286,10.9652143 3.11780952,10.5714286 3.60409524,10.5714286 C4.0912619,10.5714286 4.48504762,10.9652143 4.48504762,11.452381 L4.48504762,16.7380952 C4.48504762,17.2252619 4.0912619,17.6190476 3.60409524,17.6190476 L3.60409524,17.6190476 Z M35.318381,8.80952381 C34.8320952,8.80952381 34.4374286,8.4157381 34.4374286,7.92857143 L34.4374286,4.4047619 C34.4374286,3.91847619 34.0427619,3.52380952 33.5564762,3.52380952 L30.0326667,3.52380952 C29.546381,3.52380952 29.1517143,3.13002381 29.1517143,2.64285714 C29.1517143,2.15569048 29.546381,1.76190476 30.0326667,1.76190476 L33.5564762,1.76190476 C35.0144524,1.76190476 36.1993333,2.94766667 36.1993333,4.4047619 L36.1993333,7.92857143 C36.1993333,8.4157381 35.8055476,8.80952381 35.318381,8.80952381 L35.318381,8.80952381 Z M3.60409524,8.80952381 C3.11780952,8.80952381 2.72314286,8.4157381 2.72314286,7.92857143 L2.72314286,4.4047619 C2.72314286,2.94766667 3.90890476,1.76190476 5.366,1.76190476 L8.88980952,1.76190476 C9.37697619,1.76190476 9.7707619,2.15569048 9.7707619,2.64285714 C9.7707619,3.13002381 9.37697619,3.52380952 8.88980952,3.52380952 L5.366,3.52380952 C4.88059524,3.52380952 4.48504762,3.91847619 4.48504762,4.4047619 L4.48504762,7.92857143 C4.48504762,8.4157381 4.0912619,8.80952381 3.60409524,8.80952381 L3.60409524,8.80952381 Z M26.5088571,3.52380952 L21.2231429,3.52380952 C20.7368571,3.52380952 20.3421905,3.13002381 20.3421905,2.64285714 C20.3421905,2.15569048 20.7368571,1.76190476 21.2231429,1.76190476 L26.5088571,1.76190476 C26.9960238,1.76190476 27.3898095,2.15569048 27.3898095,2.64285714 C27.3898095,3.13002381 26.9960238,3.52380952 26.5088571,3.52380952 L26.5088571,3.52380952 Z" id="Fill-432" fill="#DBC034" sketch:type="MSShapeGroup"></path>
            <path d="M3.60409524,20.2619048 C5.06383333,20.2619048 6.24695238,21.4450238 6.24695238,22.9047619 C6.24695238,24.3645 5.06383333,25.547619 3.60409524,25.547619 C2.1452381,25.547619 0.961238095,24.3645 0.961238095,22.9047619 C0.961238095,21.4450238 2.1452381,20.2619048 3.60409524,20.2619048" id="Fill-433" fill="#CAAF1E" sketch:type="MSShapeGroup"></path>
            <path d="M15.0564762,0 C16.5162143,0 17.6993333,1.18311905 17.6993333,2.64285714 C17.6993333,4.10259524 16.5162143,5.28571429 15.0564762,5.28571429 C13.597619,5.28571429 12.413619,4.10259524 12.413619,2.64285714 C12.413619,1.18311905 13.597619,0 15.0564762,0" id="Fill-434" fill="#CAAF1E" sketch:type="MSShapeGroup"></path>
            <path d="M35.318381,11.452381 C36.778119,11.452381 37.9612381,12.6355 37.9612381,14.0952381 C37.9612381,15.5549762 36.778119,16.7380952 35.318381,16.7380952 C33.8595238,16.7380952 32.6755238,15.5549762 32.6755238,14.0952381 C32.6755238,12.6355 33.8595238,11.452381 35.318381,11.452381" id="Fill-435" fill="#CAAF1E" sketch:type="MSShapeGroup"></path>
            <path d="M23.866,31.7142857 C25.3257381,31.7142857 26.5088571,32.8974048 26.5088571,34.3571429 C26.5088571,35.816881 25.3257381,37 23.866,37 C22.4071429,37 21.2231429,35.816881 21.2231429,34.3571429 C21.2231429,32.8974048 22.4071429,31.7142857 23.866,31.7142857" id="Fill-436" fill="#CAAF1E" sketch:type="MSShapeGroup"></path>
        </g>
    </g>
</svg>