<?xml version="1.0" encoding="UTF-8" standalone="no"?>
<svg width="35px" height="37px" viewBox="0 0 35 37" version="1.1" xmlns="http://www.w3.org/2000/svg" xmlns:xlink="http://www.w3.org/1999/xlink" xmlns:sketch="http://www.bohemiancoding.com/sketch/ns">
    <!-- Generator: Sketch 3.2.2 (9983) - http://www.bohemiancoding.com/sketch -->
    <title>book-9-icon</title>
    <desc>Created with Sketch.</desc>
    <defs></defs>
    <g id="Page-1" stroke="none" stroke-width="1" fill="none" fill-rule="evenodd" sketch:type="MSPage">
        <path d="M35,3.41262136 L5.46875,3.41262136 C3.31670573,3.41262136 3.31670573,6.51343689 5.46875,6.51343689 L15.8429687,6.51343689 L15.8429687,10.1567694 L8.34230469,10.1567694 L8.34230469,33.407767 L31.3541667,33.407767 L31.3541667,10.1568592 L29.2019401,10.1568592 L29.2019401,6.5135267 L35,6.5135267 L35,37 L4.55729167,37 C2.04048177,37 0,34.9896068 0,32.5097087 L0,4.49029126 C0,2.0103932 2.04048177,0 4.55729167,0 L35,0 L35,3.41262136 L35,3.41262136 Z M18.8507812,7.73210194 L18.8507812,20.7508034 L22.4768359,17.3576699 L26.1028906,20.7508034 L26.1028906,7.73210194 C26.1028906,6.12439806 26.8194792,5.40595146 28.0169531,5.16643932 L20.8342057,5.16643932 C19.7708073,5.16643932 18.8507812,6.18411893 18.8507812,7.73210194 L18.8507812,7.73210194 Z" id="book-9-icon" fill="#DBC034" sketch:type="MSShapeGroup"></path>
    </g>
</svg>