<?xml version="1.0" encoding="UTF-8" standalone="no"?>
<svg width="39px" height="39px" viewBox="0 0 39 39" version="1.1" xmlns="http://www.w3.org/2000/svg" xmlns:xlink="http://www.w3.org/1999/xlink" xmlns:sketch="http://www.bohemiancoding.com/sketch/ns">
    <!-- Generator: Sketch 3.2.2 (9983) - http://www.bohemiancoding.com/sketch -->
    <title>Flow Chart</title>
    <desc>Created with Sketch.</desc>
    <defs></defs>
    <g id="Wireframes" stroke="none" stroke-width="1" fill="none" fill-rule="evenodd" sketch:type="MSPage">
        <g id="Artboard-5" sketch:type="MSArtboardGroup" transform="translate(-322.000000, -672.000000)" fill="#DBC034">
            <g id="Group" sketch:type="MSLayerGroup" transform="translate(0.000000, 452.000000)">
                <g transform="translate(0.000000, 144.000000)" id="ages-+-Flow-Chart" sketch:type="MSShapeGroup">
                    <g transform="translate(309.000000, 63.000000)">
                        <g id="Flow-Chart" transform="translate(12.117532, 12.555986)">
                            <path d="M37.829709,35.9314182 L24.5747304,35.9314182 C23.5294806,35.9314182 22.681162,35.0840464 22.681162,34.0378499 C22.681162,32.9916533 23.5294806,32.1442815 24.5747304,32.1442815 L35.9361406,32.1442815 L35.9361406,20.7828712 L25.5215145,20.7828712 C24.4762648,20.7828712 23.628893,19.9354994 23.628893,18.8893029 C23.628893,17.8431063 24.4762648,16.9957345 25.5215145,16.9957345 L37.829709,16.9957345 C38.8759055,16.9957345 39.7232773,17.8431063 39.7232773,18.8893029 L39.7232773,34.0378499 C39.7232773,35.0840464 38.8759055,35.9314182 37.829709,35.9314182" id="Fill-93"></path>
                            <path d="M16.0536727,20.7828712 L2.79869406,20.7828712 C1.75344431,20.7828712 0.906072467,19.9354994 0.906072467,18.8893029 L0.906072467,4.68754007 C0.906072467,3.64134354 1.75344431,2.79397169 2.79869406,2.79397169 L9.42713015,2.79397169 C10.4723799,2.79397169 11.3197517,3.64134354 11.3197517,4.68754007 C11.3197517,5.73373659 10.4723799,6.58110844 9.42713015,6.58110844 L4.69226243,6.58110844 L4.69226243,16.9957345 L16.0536727,16.9957345 C17.0998692,16.9957345 17.9481878,17.8431063 17.9481878,18.8893029 C17.9481878,19.9354994 17.0998692,20.7828712 16.0536727,20.7828712" id="Fill-94"></path>
                            <path d="M10.3729676,8.47467682 C9.32771781,8.47467682 8.47939918,7.62635818 8.47939918,6.58110844 L8.47939918,2.79397169 C8.47939918,1.74777517 9.32771781,0.900403319 10.3729676,0.900403319 L31.2022197,0.900403319 C32.2484162,0.900403319 33.095788,1.74777517 33.095788,2.79397169 L33.095788,6.58110844 C33.095788,7.62635818 32.2484162,8.47467682 31.2022197,8.47467682 L10.3729676,8.47467682" id="Fill-95"></path>
                            <path d="M20.7885404,25.5167922 C17.1339534,25.5167922 14.1601043,22.5438898 14.1601043,18.8893029 C14.1601043,15.2347159 17.1339534,12.2618136 20.7885404,12.2618136 C24.4421806,12.2618136 27.4150829,15.2347159 27.4150829,18.8893029 C27.4150829,22.5438898 24.4421806,25.5167922 20.7885404,25.5167922" id="Fill-96"></path>
                            <path d="M20.7885404,38.7717708 C20.6692456,38.7717708 20.5499508,38.749048 20.4363367,38.7045491 L10.9684948,34.9174124 C10.6096636,34.7725544 10.3729676,34.4250846 10.3729676,34.0378499 C10.3729676,33.6506151 10.6096636,33.3031453 10.9684948,33.1582874 L20.4363367,29.3711506 C20.5499508,29.3266517 20.6692456,29.3039289 20.7885404,29.3039289 C20.9068884,29.3039289 21.0261832,29.3266517 21.1397973,29.3711506 L30.6076392,33.1582874 C30.9664704,33.3031453 31.2022197,33.6506151 31.2022197,34.0378499 C31.2022197,34.4250846 30.9664704,34.7725544 30.6076392,34.9174124 L21.1397973,38.7045491 C21.0261832,38.749048 20.9068884,38.7717708 20.7885404,38.7717708" id="Fill-97"></path>
                        </g>
                    </g>
                </g>
            </g>
        </g>
    </g>
</svg>