<?xml version="1.0" encoding="UTF-8" standalone="no"?>
<svg width="29px" height="39px" viewBox="0 0 29 39" version="1.1" xmlns="http://www.w3.org/2000/svg" xmlns:xlink="http://www.w3.org/1999/xlink" xmlns:sketch="http://www.bohemiancoding.com/sketch/ns">
    <!-- Generator: Sketch 3.2.2 (9983) - http://www.bohemiancoding.com/sketch -->
    <title>Notepad</title>
    <desc>Created with Sketch.</desc>
    <defs></defs>
    <g id="Page-1" stroke="none" stroke-width="1" fill="none" fill-rule="evenodd" sketch:type="MSPage">
        <g id="Notepad" sketch:type="MSLayerGroup">
            <path d="M28.956,20.4430122 L28.956,36.9510122 C28.956,38.0560122 28.061,38.9510122 26.956,38.9510122 L11,38.9510122" id="Fill-105" fill="#DBC034" sketch:type="MSShapeGroup"></path>
            <path d="M16.956,38.9510122 L2.956,38.9510122 C1.852,38.9510122 0.956,38.0560122 0.956,36.9510122 L0.956,6.95101221 C0.956,5.84601221 1.852,4.95101221 2.956,4.95101221 L26.956,4.95101221 C28.061,4.95101221 28.956,5.84601221 28.956,6.95101221 L28.956,26.9510122 L16.956,38.9510122" id="Fill-106" fill="#DBC034" sketch:type="MSShapeGroup"></path>
            <path d="M16.956,38.9510122 L16.956,28.9510122 C16.956,27.8460122 17.852,26.9510122 18.956,26.9510122 L28.956,26.9510122" id="Fill-107" fill="#FFFFFF" sketch:type="MSShapeGroup"></path>
            <path d="M6.956,0.951012207 C8.061,0.951012207 8.956,1.84601221 8.956,2.95101221 L8.956,6.95101221 C8.956,8.05601221 8.061,8.95101221 6.956,8.95101221 C5.852,8.95101221 4.956,8.05601221 4.956,6.95101221 L4.956,2.95101221 C4.956,1.84601221 5.852,0.951012207 6.956,0.951012207" id="Fill-108" fill="#CAAF1E" sketch:type="MSShapeGroup"></path>
            <path d="M14.956,0.951012207 C16.061,0.951012207 16.956,1.84601221 16.956,2.95101221 L16.956,6.95101221 C16.956,8.05601221 16.061,8.95101221 14.956,8.95101221 C13.852,8.95101221 12.956,8.05601221 12.956,6.95101221 L12.956,2.95101221 C12.956,1.84601221 13.852,0.951012207 14.956,0.951012207" id="Fill-109" fill="#CAAF1E" sketch:type="MSShapeGroup"></path>
            <path d="M22.956,0.951012207 C24.061,0.951012207 24.956,1.84601221 24.956,2.95101221 L24.956,6.95101221 C24.956,8.05601221 24.061,8.95101221 22.956,8.95101221 C21.852,8.95101221 20.956,8.05601221 20.956,6.95101221 L20.956,2.95101221 C20.956,1.84601221 21.852,0.951012207 22.956,0.951012207" id="Fill-110" fill="#CAAF1E" sketch:type="MSShapeGroup"></path>
        </g>
    </g>
</svg>