<?xml version="1.0" encoding="UTF-8" standalone="no"?>
<svg width="38px" height="38px" viewBox="0 0 38 38" version="1.1" xmlns="http://www.w3.org/2000/svg" xmlns:xlink="http://www.w3.org/1999/xlink" xmlns:sketch="http://www.bohemiancoding.com/sketch/ns">
    <!-- Generator: Sketch 3.2.2 (9983) - http://www.bohemiancoding.com/sketch -->
    <title>Oval 1</title>
    <desc>Created with Sketch.</desc>
    <defs></defs>
    <g id="Page-1" stroke="none" stroke-width="1" fill="none" fill-rule="evenodd" sketch:type="MSPage">
        <path d="M19,38 C29.4934102,38 38,29.4934102 38,19 C38,8.50658975 29.4934102,0 19,0 C8.50658975,0 0,8.50658975 0,19 C0,29.4934102 8.50658975,38 19,38 Z M11.085,17.838 L13.061,17.838 C13.000333,17.300664 12.8530012,16.8240021 12.619,16.408 C12.3849988,15.9919979 12.0881685,15.6431681 11.7285,15.3615 C11.3688315,15.0798319 10.9615023,14.8653341 10.5065,14.718 C10.0514977,14.5706659 9.56833589,14.497 9.057,14.497 C8.34632978,14.497 7.70716951,14.6226654 7.1395,14.874 C6.57183049,15.1253346 6.09300195,15.4719978 5.703,15.914 C5.31299805,16.3560022 5.01400104,16.8738304 4.806,17.4675 C4.59799896,18.0611696 4.494,18.7046632 4.494,19.398 C4.494,20.0740034 4.59799896,20.7044971 4.806,21.2895 C5.01400104,21.8745029 5.31299805,22.3836645 5.703,22.817 C6.09300195,23.2503355 6.57183049,23.5904988 7.1395,23.8375 C7.70716951,24.0845012 8.34632978,24.208 9.057,24.208 C9.62900286,24.208 10.153331,24.1213342 10.63,23.948 C11.1066691,23.7746658 11.5226649,23.523335 11.878,23.194 C12.2333351,22.864665 12.5193323,22.4660023 12.736,21.998 C12.9526678,21.5299977 13.0869997,21.0056696 13.139,20.425 L11.163,20.425 C11.0849996,21.0490031 10.8705018,21.5516648 10.5195,21.933 C10.1684982,22.3143352 9.68100312,22.505 9.057,22.505 C8.59766437,22.505 8.20766827,22.4161676 7.887,22.2385 C7.56633173,22.0608324 7.30633433,21.8246681 7.107,21.53 C6.90766567,21.2353319 6.76250046,20.9038352 6.6715,20.5355 C6.58049954,20.1671648 6.535,19.7880019 6.535,19.398 C6.535,18.9906646 6.58049954,18.5963352 6.6715,18.215 C6.76250046,17.8336648 6.90766567,17.4935015 7.107,17.1945 C7.30633433,16.8954985 7.56633173,16.6571676 7.887,16.4795 C8.20766827,16.3018324 8.59766437,16.213 9.057,16.213 C9.30833459,16.213 9.54883219,16.2541663 9.7785,16.3365 C10.0081678,16.4188337 10.2139991,16.5336659 10.396,16.681 C10.5780009,16.8283341 10.7296661,16.999499 10.851,17.1945 C10.9723339,17.389501 11.0503332,17.6039988 11.085,17.838 Z M14.53,14.718 L14.53,24 L16.441,24 L16.441,17.487 L16.467,17.487 L18.742,24 L20.315,24 L22.59,17.422 L22.616,17.422 L22.616,24 L24.527,24 L24.527,14.718 L21.654,14.718 L19.6,21.101 L19.574,21.101 L17.403,14.718 L14.53,14.718 Z M27.712,20.919 L25.736,20.919 C25.7273333,21.4910029 25.8313322,21.9849979 26.048,22.401 C26.2646677,22.8170021 26.5571648,23.159332 26.9255,23.428 C27.2938352,23.696668 27.7184976,23.8938327 28.1995,24.0195 C28.6805024,24.1451673 29.1766641,24.208 29.688,24.208 C30.3206698,24.208 30.8774976,24.1343341 31.3585,23.987 C31.8395024,23.8396659 32.2424984,23.6338347 32.5675,23.3695 C32.8925016,23.1051653 33.1373325,22.7910018 33.302,22.427 C33.4666675,22.0629982 33.549,21.6686688 33.549,21.244 C33.549,20.7239974 33.4385011,20.2971683 33.2175,19.9635 C32.9964989,19.6298317 32.7343348,19.3633343 32.431,19.164 C32.1276651,18.9646657 31.8221682,18.8195005 31.5145,18.7285 C31.2068318,18.6374995 30.9663342,18.5746668 30.793,18.54 C30.2123304,18.3926659 29.7421685,18.2713338 29.3825,18.176 C29.0228315,18.0806662 28.7411677,17.9853338 28.5375,17.89 C28.3338323,17.7946662 28.1973337,17.6906672 28.128,17.578 C28.0586663,17.4653328 28.024,17.3180009 28.024,17.136 C28.024,16.9366657 28.0673329,16.7720006 28.154,16.642 C28.2406671,16.5119994 28.351166,16.4036671 28.4855,16.317 C28.619834,16.2303329 28.7693325,16.1696668 28.934,16.135 C29.0986675,16.1003332 29.2633325,16.083 29.428,16.083 C29.6793346,16.083 29.9111656,16.1046664 30.1235,16.148 C30.3358344,16.1913335 30.5243325,16.2649995 30.689,16.369 C30.8536675,16.4730005 30.9858328,16.6159991 31.0855,16.798 C31.1851672,16.9800009 31.2436666,17.2096653 31.261,17.487 L33.237,17.487 C33.237,16.949664 33.1351677,16.4925019 32.9315,16.1155 C32.7278323,15.7384981 32.4526684,15.4286679 32.106,15.186 C31.7593316,14.9433321 31.3628356,14.7678339 30.9165,14.6595 C30.4701644,14.5511661 30.0043358,14.497 29.519,14.497 C29.1029979,14.497 28.6870021,14.5533328 28.271,14.666 C27.8549979,14.7786672 27.482335,14.9519988 27.153,15.186 C26.823665,15.4200012 26.5571677,15.7124982 26.3535,16.0635 C26.1498323,16.4145018 26.048,16.8283309 26.048,17.305 C26.048,17.7296688 26.1281659,18.0914985 26.2885,18.3905 C26.4488341,18.6895015 26.6589987,18.9386657 26.919,19.138 C27.1790013,19.3373343 27.473665,19.4998327 27.803,19.6255 C28.132335,19.7511673 28.4703316,19.8573329 28.817,19.944 C29.1550017,20.0393338 29.488665,20.1259996 29.818,20.204 C30.147335,20.2820004 30.4419987,20.3729995 30.702,20.477 C30.9620013,20.5810005 31.1721659,20.7109992 31.3325,20.867 C31.4928341,21.0230008 31.573,21.2266654 31.573,21.478 C31.573,21.7120012 31.5123339,21.9048326 31.391,22.0565 C31.2696661,22.2081674 31.1180009,22.3273329 30.936,22.414 C30.7539991,22.5006671 30.559001,22.5591665 30.351,22.5895 C30.142999,22.6198335 29.9480009,22.635 29.766,22.635 C29.497332,22.635 29.2373346,22.6025003 28.986,22.5375 C28.7346654,22.4724997 28.5158343,22.372834 28.3295,22.2385 C28.1431657,22.104166 27.9936672,21.9286677 27.881,21.712 C27.7683328,21.4953323 27.712,21.2310016 27.712,20.919 Z" id="Oval-1" fill="#DBC034" sketch:type="MSShapeGroup"></path>
    </g>
</svg>