<?xml version="1.0" encoding="UTF-8" standalone="no"?>
<svg width="41px" height="37px" viewBox="0 0 41 37" version="1.1" xmlns="http://www.w3.org/2000/svg" xmlns:xlink="http://www.w3.org/1999/xlink" xmlns:sketch="http://www.bohemiancoding.com/sketch/ns">
    <!-- Generator: Sketch 3.2.2 (9983) - http://www.bohemiancoding.com/sketch -->
    <title>Artboard</title>
    <desc>Created with Sketch.</desc>
    <defs></defs>
    <g id="Page-1" stroke="none" stroke-width="1" fill="none" fill-rule="evenodd" sketch:type="MSPage">
        <g id="Artboard" sketch:type="MSLayerGroup">
            <path d="M10.956,0.950996948 C10.404,0.950996948 9.956,1.39899695 9.956,1.95099695 L9.956,6.95099695 C9.956,7.50299695 10.404,7.95099695 10.956,7.95099695 C11.509,7.95099695 11.956,7.50299695 11.956,6.95099695 L11.956,1.95099695 C11.956,1.39899695 11.509,0.950996948 10.956,0.950996948" id="Fill-202" fill="#DBC034" sketch:type="MSShapeGroup"></path>
            <path d="M6.956,9.95099695 L1.956,9.95099695 C1.404,9.95099695 0.956,10.3989969 0.956,10.9509969 C0.956,11.5029969 1.404,11.9509969 1.956,11.9509969 L6.956,11.9509969 C7.509,11.9509969 7.956,11.5029969 7.956,10.9509969 C7.956,10.3989969 7.509,9.95099695 6.956,9.95099695" id="Fill-203" fill="#DBC034" sketch:type="MSShapeGroup"></path>
            <path d="M34.956,11.9509969 L39.956,11.9509969 C40.509,11.9509969 40.956,11.5029969 40.956,10.9509969 C40.956,10.3989969 40.509,9.95099695 39.956,9.95099695 L34.956,9.95099695 C34.404,9.95099695 33.956,10.3989969 33.956,10.9509969 C33.956,11.5029969 34.404,11.9509969 34.956,11.9509969" id="Fill-204" fill="#DBC034" sketch:type="MSShapeGroup"></path>
            <path d="M30.956,0.950996948 C30.404,0.950996948 29.956,1.39899695 29.956,1.95099695 L29.956,6.95099695 C29.956,7.50299695 30.404,7.95099695 30.956,7.95099695 C31.509,7.95099695 31.956,7.50299695 31.956,6.95099695 L31.956,1.95099695 C31.956,1.39899695 31.509,0.950996948 30.956,0.950996948" id="Fill-205" fill="#DBC034" sketch:type="MSShapeGroup"></path>
            <path d="M10.956,29.9509969 C10.404,29.9509969 9.956,30.3989969 9.956,30.9509969 L9.956,35.9509969 C9.956,36.5029969 10.404,36.9509969 10.956,36.9509969 C11.509,36.9509969 11.956,36.5029969 11.956,35.9509969 L11.956,30.9509969 C11.956,30.3989969 11.509,29.9509969 10.956,29.9509969" id="Fill-206" fill="#DBC034" sketch:type="MSShapeGroup"></path>
            <path d="M30.956,29.9509969 C30.404,29.9509969 29.956,30.3989969 29.956,30.9509969 L29.956,35.9509969 C29.956,36.5029969 30.404,36.9509969 30.956,36.9509969 C31.509,36.9509969 31.956,36.5029969 31.956,35.9509969 L31.956,30.9509969 C31.956,30.3989969 31.509,29.9509969 30.956,29.9509969" id="Fill-207" fill="#DBC034" sketch:type="MSShapeGroup"></path>
            <path d="M6.956,25.9509969 L1.956,25.9509969 C1.404,25.9509969 0.956,26.3989969 0.956,26.9509969 C0.956,27.5029969 1.404,27.9509969 1.956,27.9509969 L6.956,27.9509969 C7.509,27.9509969 7.956,27.5029969 7.956,26.9509969 C7.956,26.3989969 7.509,25.9509969 6.956,25.9509969" id="Fill-208" fill="#DBC034" sketch:type="MSShapeGroup"></path>
            <path d="M39.956,25.9509969 L34.956,25.9509969 C34.404,25.9509969 33.956,26.3989969 33.956,26.9509969 C33.956,27.5029969 34.404,27.9509969 34.956,27.9509969 L39.956,27.9509969 C40.509,27.9509969 40.956,27.5029969 40.956,26.9509969 C40.956,26.3989969 40.509,25.9509969 39.956,25.9509969" id="Fill-209" fill="#DBC034" sketch:type="MSShapeGroup"></path>
            <path d="M11.956,9.95099695 L29.956,9.95099695 C31.061,9.95099695 31.956,10.8459969 31.956,11.9509969 L31.956,25.9509969 C31.956,27.0559969 31.061,27.9509969 29.956,27.9509969 L11.956,27.9509969 C10.852,27.9509969 9.956,27.0559969 9.956,25.9509969 L9.956,11.9509969 C9.956,10.8459969 10.852,9.95099695 11.956,9.95099695" id="Fill-210" fill="#CAAE1E" sketch:type="MSShapeGroup"></path>
        </g>
    </g>
</svg>