<?xml version="1.0" encoding="UTF-8" standalone="no"?>
<svg width="63px" height="63px" viewBox="0 0 63 63" version="1.1" xmlns="http://www.w3.org/2000/svg" xmlns:xlink="http://www.w3.org/1999/xlink" xmlns:sketch="http://www.bohemiancoding.com/sketch/ns">
    <!-- Generator: Sketch 3.2.2 (9983) - http://www.bohemiancoding.com/sketch -->
    <title>coderfactory-logo 2</title>
    <desc>Created with Sketch.</desc>
    <defs></defs>
    <g id="Wireframes" stroke="none" stroke-width="1" fill="none" fill-rule="evenodd" sketch:type="MSPage">
        <g id="coderfactory-logo-2" sketch:type="MSLayerGroup" transform="translate(0.040992, 0.000000)" fill="#2C3E50">
            <path d="M41.4476125,40.8363896 C44.2720063,44.2532137 47.0232377,47.5732749 47.2608795,47.8446949 C47.7522739,48.4059357 47.8981151,50.4903839 46.2449535,52.1198627 C44.5917918,53.7493415 41.8315963,52.4329239 41.8315963,52.4329239 C41.8315963,52.4329239 26.8527936,36.0047527 25.7118289,33.6628276 C24.5708642,31.3209025 25.6396273,29.0215253 26.3039121,27.7131369 C26.9681969,26.4047486 44.951974,11.0240845 44.951974,11.0240845 C44.951974,11.0240845 47.5346776,10.4683446 49.2139606,12.0725221 C50.8932436,13.6766995 49.9476973,16.3020107 49.9476973,16.3020107 C49.9476973,16.3020107 35.9142292,28.9233937 35.2138698,29.9007074 C34.5135104,30.8780211 34.5807966,31.0359187 34.5659385,31.5559355 C34.5498131,32.1203066 34.7112878,32.6208281 35.1209192,33.153871 C35.2120921,33.272512 35.839735,34.0383022 36.7659421,35.1634767 L48.716614,24.9802932 C48.716614,24.9802932 51.3460862,24.1924542 52.9245598,25.9408728 C54.5030335,27.6892914 53.2800802,30.4052978 53.2800802,30.4052978 L41.4476125,40.8363896 Z M26.5000476,51.483648 C26.5000476,51.483648 29.2827973,52.7516931 30.9072688,51.0936108 C32.5317404,49.4355285 32.3495427,47.353943 31.8484282,46.8013637 C31.3473137,46.2487844 19.8727985,32.8504616 19.4539266,32.3246489 C19.0350548,31.7988362 18.8648693,31.301209 18.8711427,30.7366425 C18.876923,30.2164456 18.8068913,30.0597464 19.4900875,29.0703585 C20.1732838,28.0809707 33.984341,15.2165923 33.984341,15.2165923 C33.984341,15.2165923 34.8839253,12.5751788 33.1769013,11.0005532 C31.4698774,9.42592761 28.8972661,10.0266573 28.8972661,10.0266573 C28.8972661,10.0266573 11.1846576,25.718839 10.5433085,27.0386214 C9.90195936,28.3584039 8.87348877,30.6760834 10.0551519,32.9977392 C11.236815,35.3193951 26.5000476,51.483648 26.5000476,51.483648 Z" id="Path-3" sketch:type="MSShapeGroup"></path>
            <path d="M31.4254925,62.8417073 C48.6884634,62.8417073 62.6828663,48.8473044 62.6828663,31.5843335 C62.6828663,14.3213627 48.6884634,0.326959756 31.4254925,0.326959756 C14.1625216,0.326959756 0.168118726,14.3213627 0.168118726,31.5843335 C0.168118726,48.8473044 14.1625216,62.8417073 31.4254925,62.8417073 Z M31.3009611,59.8529544 C46.9820661,59.8529544 59.6941134,47.1409072 59.6941134,31.4598022 C59.6941134,15.7786972 46.9820661,3.06664989 31.3009611,3.06664989 C15.6198561,3.06664989 2.90780886,15.7786972 2.90780886,31.4598022 C2.90780886,47.1409072 15.6198561,59.8529544 31.3009611,59.8529544 Z" id="Oval-1" sketch:type="MSShapeGroup"></path>
        </g>
    </g>
</svg>