<?xml version="1.0" encoding="UTF-8" standalone="no"?>
<svg width="25px" height="42px" viewBox="0 0 25 42" version="1.1" xmlns="http://www.w3.org/2000/svg" xmlns:xlink="http://www.w3.org/1999/xlink" xmlns:sketch="http://www.bohemiancoding.com/sketch/ns">
    <!-- Generator: Sketch 3.2.2 (9983) - http://www.bohemiancoding.com/sketch -->
    <title>Brush</title>
    <desc>Created with Sketch.</desc>
    <defs></defs>
    <g id="Wireframes" stroke="none" stroke-width="1" fill="none" fill-rule="evenodd" sketch:type="MSPage">
        <g id="Artboard-5" sketch:type="MSArtboardGroup" transform="translate(-78.000000, -669.000000)" fill="#DBC034">
            <g id="Group" sketch:type="MSLayerGroup" transform="translate(0.000000, 452.000000)">
                <g transform="translate(0.000000, 144.000000)" id="ages" sketch:type="MSShapeGroup">
                    <g transform="translate(57.000000, 62.000000)">
                        <g id="Oval-3-+-Brush">
                            <g id="Brush" transform="translate(32.538969, 32.043893) rotate(-25.000000) translate(-32.538969, -32.043893) translate(24.038969, 9.043893)">
                                <path d="M11.3252443,28.3691363 L13.2146744,18.8972859 L11.6218848,3.72622306 C11.4527808,2.11979723 10.1018382,0.900770083 8.49109905,0.900770083 C6.87941514,0.900770083 5.52847259,2.11979723 5.36031331,3.72622306 L3.7675237,18.8972859 L5.65695384,28.3691363" id="Fill-166"></path>
                                <path d="M8.46559174,45.4089951 C8.21429753,45.4089951 7.97339519,45.3085935 7.79578876,45.1305227 L3.12322802,40.4258546 C0.180440578,37.464007 0.180440578,32.6437823 3.12322802,29.6809875 C4.54974778,28.2441078 6.44768035,27.4532083 8.46559174,27.4532083 C10.4844478,27.4532083 12.380491,28.2441078 13.8079555,29.6809875 C16.7507429,32.6437823 16.7507429,37.464007 13.8070107,40.4258546 L9.13539472,45.1305227 C8.95684358,45.3085935 8.71688595,45.4089951 8.46559174,45.4089951" id="Fill-167"></path>
                            </g>
                        </g>
                    </g>
                </g>
            </g>
        </g>
    </g>
</svg>