<?xml version="1.0" encoding="UTF-8" standalone="no"?>
<svg width="110px" height="63px" viewBox="0 0 110 63" version="1.1" xmlns="http://www.w3.org/2000/svg" xmlns:xlink="http://www.w3.org/1999/xlink" xmlns:sketch="http://www.bohemiancoding.com/sketch/ns">
    <!-- Generator: Sketch 3.2.2 (9983) - http://www.bohemiancoding.com/sketch -->
    <title>path3922</title>
    <desc>Created with Sketch.</desc>
    <defs></defs>
    <g id="Wireframes" stroke="none" stroke-width="1" fill="none" fill-rule="evenodd" sketch:type="MSPage">
        <path d="M93.5944301,62.1639199 C93.0788726,61.5973345 92.4846179,60.4608161 92.0368468,59.1850304 C91.4171734,57.4194632 91.3137924,56.7562791 91.3193599,54.5823736 C91.3230466,53.1451136 91.4432099,51.8932424 91.5961678,51.6986809 C91.7448361,51.5095784 91.944556,51.0163366 92.039988,50.6025894 C92.1354226,50.1888422 92.438247,49.3767316 92.71293,48.7978993 C93.1117495,47.9574809 93.1558037,47.6391087 92.9316242,47.2174502 C92.2254741,45.8892514 92.8786645,43.2878147 94.0536227,42.7489202 C94.4379991,42.5726238 94.6732712,42.1005959 94.9066875,41.0374085 C95.0839555,40.2299645 95.3171302,39.4564905 95.4248506,39.3185747 C95.8311632,38.7983716 96.2342797,35.0968111 96.1145773,32.9852585 C95.987743,30.7479093 95.4980825,29.2264881 94.340188,27.472072 C93.7206093,26.5333022 93.4259904,26.492587 92.0597221,27.1569145 C91.5116913,27.4233878 90.9512052,27.6469718 90.8141975,27.6537698 C90.6771898,27.6605652 89.3880719,28.1245539 87.949491,28.6848504 C86.51091,29.2451443 84.7173546,29.9205452 83.9638122,30.1857422 C83.2102698,30.4509366 82.3695407,30.7789227 82.0955253,30.9145992 C81.8215099,31.0502732 80.3642461,31.6095165 78.8571614,32.1573629 C74.2262561,33.8407549 72.6499151,34.430791 72.1313285,34.6748893 C71.8573131,34.8038681 70.5121465,35.3185144 69.1420695,35.8185467 C67.7719924,36.318579 65.978437,36.9880897 65.1563908,37.3063466 C64.3343445,37.6246034 63.3815182,37.967472 63.0389989,38.0682758 C62.6964797,38.1690772 62.3041394,38.3356518 62.1671317,38.4384392 C62.030124,38.5412265 61.3014921,38.8244477 60.5479497,39.0678189 C59.7944073,39.31119 59.0657755,39.5878966 58.9287678,39.6827199 C58.79176,39.7775458 58.2130046,40.0031132 57.6426465,40.1839859 C56.7093102,40.4799631 56.4976158,40.4615276 55.5252547,39.99957 C53.6813278,39.1235443 51.2864106,38.0352914 49.3382283,37.1881779 C47.4143636,36.3516387 46.4156148,35.8972515 42.9860529,34.2982013 C41.8899912,33.7871583 39.2557067,32.5822487 37.1320872,31.6206275 C35.0084678,30.6590038 32.8225721,29.6659152 32.2745413,29.4137626 C31.7265105,29.16161 30.7176355,28.7049058 30.032597,28.3988608 C29.3475585,28.0928182 27.9463433,27.4528416 26.9187855,26.9766938 C24.3634423,25.7926019 23.3469423,25.3250375 21.3139248,24.3985998 C20.3548709,23.9615624 19.1218015,23.3975322 18.5737707,23.1451966 C18.0257399,22.8928634 17.0168649,22.4413323 16.3318264,22.1417969 C15.0947963,21.6009014 14.5830077,21.3680044 11.4742805,19.9312986 C10.5837304,19.5197279 9.07041797,18.8223207 8.11136403,18.3815069 C7.15231009,17.9406906 5.80714352,17.3194755 5.12210499,17.0010255 C2.25669842,15.6690078 0.983241684,15.1206323 0.755385414,15.1206323 C0.622438118,15.1206323 0.513663964,15.0121402 0.513663964,14.8795405 C0.513663964,14.6418791 0.926814438,14.5042091 3.87658039,13.7589651 C4.69862662,13.5512766 6.43613344,13.1023032 7.73770665,12.7612401 C13.3609089,11.2877459 15.2094169,10.8135615 17.2036936,10.3329904 C18.3682591,10.0523594 19.5452799,9.72704629 19.8192953,9.61006867 C20.0933107,9.49309356 22.3913036,8.86526353 24.9259461,8.21489304 C31.4333165,6.54514976 33.8029644,5.93224722 36.5100125,5.21871133 C41.8259538,3.81751003 43.8462072,3.28863328 46.0998644,2.70821617 C47.4014376,2.3730032 49.5873332,1.80348895 50.9574103,1.44263118 C52.3274874,1.0817709 54.1946309,0.609554948 55.1066164,0.393260448 L56.7647759,0 L58.7186378,0.791255166 C59.793264,1.22644701 60.7676578,1.5819035 60.8839599,1.58116377 C61.000262,1.58041151 61.4486508,1.74237222 61.8803796,1.94105363 C62.3121083,2.13973504 63.8984109,2.77059671 65.4054957,3.34297208 C66.9125804,3.91534495 68.3698442,4.48096997 68.6438596,4.59991603 C70.0223016,5.19827723 76.9080748,7.84871172 77.0841646,7.84871172 C77.1958557,7.84871172 77.6404707,8.01154758 78.0721994,8.2105675 C79.1111288,8.68949619 83.4124185,10.3562705 83.6094206,10.3562705 C83.6944202,10.3562705 84.1171986,10.518828 84.5489273,10.7175095 C84.980656,10.9161909 86.5669586,11.5489081 88.0740434,12.1235478 C89.5811282,12.6981875 91.1504892,13.3129607 91.5615123,13.4897085 C91.9725354,13.6664563 92.5890701,13.8925904 92.9315894,13.9922308 C93.2741086,14.0918712 93.8906433,14.3236774 94.3016664,14.5073561 C95.4131103,15.0040433 99.6228788,16.6251675 99.8012404,16.6251675 C99.88624,16.6251675 100.309018,16.7880034 100.740747,16.9870233 C101.748543,17.4516013 106.078281,19.1327264 106.267005,19.1327264 C106.395626,19.1327264 107.283445,19.5033586 109.123409,20.3251659 C109.580011,20.5291056 109.628958,20.607848 109.306858,20.6202905 C109.065236,20.6296186 108.672895,20.7478751 108.43499,20.8830701 C107.936636,21.1662713 103.48198,22.8940646 103.250178,22.8940646 C103.165178,22.8940646 102.7424,23.0491119 102.310671,23.2386132 C101.878942,23.4281144 100.543837,23.9524374 99.3437717,24.4037754 L97.1618343,25.2243891 L97.7779953,26.2827545 C98.1168826,26.8648541 98.6495686,28.0049233 98.9617394,28.8162414 C100.038745,31.615309 99.6526294,36.1582583 97.8757292,41.5939863 L97.3778257,43.1171301 L97.9260957,44.175982 C98.6379354,45.5507285 98.4838017,46.9780385 97.5134011,47.997632 C97.1342609,48.3959903 96.6621423,48.7219203 96.4642459,48.7219203 C96.1722276,48.7219203 96.1278471,49.0644478 96.2286997,50.5399004 C96.4545233,53.8436342 98.3108158,58.4518753 100.026703,59.9684293 C100.649268,60.5186705 100.796557,60.7832882 100.578164,60.9591859 C99.9110658,61.4964755 96.4732236,62.846831 95.4858165,62.9594129 C94.5187738,63.0696753 94.3565069,63.0014295 93.5944301,62.1639199 L93.5944301,62.1639199 Z M51.6612089,57.5760578 C45.4952817,48.1714559 36.6856289,43.1818803 26.1106842,43.1048506 L22.6869812,43.0799255 L22.6936323,41.5753902 C22.7043687,39.1471204 23.8276899,32.5744477 24.4215286,31.4651538 C24.5456352,31.2333225 24.8372224,30.5076525 25.0695028,29.8525528 C25.3017832,29.1974531 25.5373268,28.6614624 25.5929295,28.6614624 C25.6485323,28.6614624 26.4460093,29.0095115 27.3650968,29.4349013 C28.2841869,29.8602936 29.4845562,30.4149681 30.032587,30.6675094 C30.5806179,30.9200507 31.8136872,31.4896025 32.7727412,31.9331771 C34.9676146,32.9483398 38.0974709,34.3861389 38.7512593,34.6796035 C39.0252747,34.8025993 40.1206812,35.3042765 41.1854951,35.7944416 C42.2503115,36.2846066 43.1660087,36.6856505 43.2203834,36.6856505 C43.2747555,36.6856505 44.3652447,37.17811 45.643691,37.7800044 C46.9221398,38.3819012 48.6407246,39.1819303 49.4627708,39.5578485 C51.6256218,40.5469125 52.7331373,41.0563832 54.6666,41.951667 C56.0308679,42.5833862 56.5674325,42.7117281 57.2822017,42.5772903 C57.7767845,42.4842674 58.2935402,42.3203458 58.4305479,42.2130198 C58.5675557,42.1056938 59.2961875,41.8187613 60.0497299,41.5753902 C60.8032723,41.3320191 61.5319042,41.049693 61.6689119,40.9480015 C61.8059196,40.8463075 62.3664057,40.622232 62.9144365,40.450058 C63.4624673,40.2778815 64.2471478,39.9894069 64.658171,39.8090006 C65.3275632,39.5151924 68.0521632,38.4912784 72.7540809,36.7665369 C73.6446309,36.4398671 74.5974573,36.0624444 74.8714727,35.9278186 C75.1454881,35.7931953 75.9862172,35.464655 76.7397596,35.1977328 C77.493302,34.9308107 78.8945171,34.4169593 79.8535711,34.0558407 C80.812625,33.6947196 82.2698888,33.1637591 83.091935,32.875929 C83.9139813,32.5880963 84.7188692,32.2482669 84.8805731,32.1207526 C86.1408248,31.1269644 87.1368235,42.1723973 86.2372832,47.1663812 L85.9077149,48.9960316 L84.7489312,48.8248054 C84.1115987,48.7306315 83.3099019,48.5412682 82.9673826,48.4040019 C82.0686893,48.0438463 74.6621448,47.8750048 72.7540809,48.1711776 C70.7890167,48.4761996 67.0351874,49.4122963 66.6680591,49.6888575 C66.521675,49.7991299 65.8788996,50.0837429 65.2396715,50.3213265 C64.2561281,50.686886 62.6748922,51.5079736 60.8347916,52.608649 C59.3257538,53.5112949 55.8344014,56.4521223 54.1932185,58.20296 L52.945148,59.5344211 L51.661199,57.5760703 L51.6612089,57.5760578 Z" id="path3922" fill="#2C3E50" sketch:type="MSShapeGroup"></path>
    </g>
</svg>