<?xml version="1.0" encoding="UTF-8" standalone="no"?>
<svg width="39px" height="35px" viewBox="0 0 39 35" version="1.1" xmlns="http://www.w3.org/2000/svg" xmlns:xlink="http://www.w3.org/1999/xlink" xmlns:sketch="http://www.bohemiancoding.com/sketch/ns">
    <!-- Generator: Sketch 3.2.2 (9983) - http://www.bohemiancoding.com/sketch -->
    <title>Code Snippet</title>
    <desc>Created with Sketch.</desc>
    <defs></defs>
    <g id="Page-1" stroke="none" stroke-width="1" fill="none" fill-rule="evenodd" sketch:type="MSPage">
        <g id="Code-Snippet" sketch:type="MSLayerGroup">
            <path d="M0.956,6.95099695 L0.956,32.9509969 C0.956,34.0549969 1.852,34.9509969 2.956,34.9509969 L36.956,34.9509969 C38.061,34.9509969 38.956,34.0549969 38.956,32.9509969 L38.956,6.95099695 L0.956,6.95099695 Z M23.404,14.0559969 C22.909,13.8089969 22.309,14.0099969 22.062,14.5039969 L16.062,26.5039969 C15.815,26.9979969 16.015,27.5979969 16.509,27.8459969 C16.653,27.9169969 16.806,27.9509969 16.956,27.9509969 C17.323,27.9509969 17.676,27.7489969 17.851,27.3979969 L23.851,15.3979969 C24.098,14.9039969 23.898,14.3039969 23.404,14.0559969 Z M13.825,16.4549969 C13.551,15.9749969 12.94,15.8099969 12.46,16.0829969 L5.46,20.0829969 C5.149,20.2609969 4.956,20.5919969 4.956,20.9509969 C4.956,21.3099969 5.149,21.6409969 5.46,21.8189969 L12.46,25.8189969 C12.617,25.9079969 12.788,25.9509969 12.956,25.9509969 C13.303,25.9509969 13.64,25.7699969 13.825,25.4469969 C14.099,24.9679969 13.932,24.3569969 13.453,24.0829969 L7.972,20.9509969 L13.453,17.8189969 C13.932,17.5449969 14.099,16.9339969 13.825,16.4549969 Z M34.453,20.0829969 L27.453,16.0829969 C26.974,15.8099969 26.362,15.9749969 26.088,16.4549969 C25.815,16.9339969 25.981,17.5449969 26.46,17.8189969 L31.941,20.9509969 L26.46,24.0829969 C25.981,24.3569969 25.815,24.9679969 26.088,25.4469969 C26.273,25.7699969 26.61,25.9509969 26.957,25.9509969 C27.125,25.9509969 27.296,25.9079969 27.453,25.8189969 L34.453,21.8189969 C34.764,21.6409969 34.956,21.3099969 34.956,20.9509969 C34.956,20.5919969 34.764,20.2609969 34.453,20.0829969 Z" id="Fill-153" fill="#DBC034" sketch:type="MSShapeGroup"></path>
            <path d="M36.956,0.950996948 L2.956,0.950996948 C1.852,0.950996948 0.956,1.84599695 0.956,2.95099695 L0.956,6.95099695 L38.956,6.95099695 L38.956,2.95099695 C38.956,1.84599695 38.061,0.950996948 36.956,0.950996948" id="Fill-154" fill="#CAAF1E" sketch:type="MSShapeGroup"></path>
        </g>
    </g>
</svg>