<?xml version="1.0" encoding="UTF-8" standalone="no"?>
<svg width="33px" height="41px" viewBox="0 0 33 41" version="1.1" xmlns="http://www.w3.org/2000/svg" xmlns:xlink="http://www.w3.org/1999/xlink" xmlns:sketch="http://www.bohemiancoding.com/sketch/ns">
    <!-- Generator: Sketch 3.2.2 (9983) - http://www.bohemiancoding.com/sketch -->
    <title>Easel</title>
    <desc>Created with Sketch.</desc>
    <defs></defs>
    <g id="Page-1" stroke="none" stroke-width="1" fill="none" fill-rule="evenodd" sketch:type="MSPage">
        <g id="Easel" sketch:type="MSLayerGroup">
            <path d="M26.957,40.9510122 C26.59,40.9510122 26.237,40.7490122 26.062,40.3980122 L16.956,22.1870122 L7.851,40.3980122 C7.602,40.8930122 7.003,41.0930122 6.509,40.8460122 C6.015,40.5980122 5.814,39.9980122 6.062,39.5040122 L16.061,19.5040122 C16.401,18.8260122 17.511,18.8260122 17.851,19.5040122 L27.851,39.5040122 C28.098,39.9980122 27.898,40.5980122 27.403,40.8460122 C27.26,40.9170122 27.107,40.9510122 26.957,40.9510122" id="Fill-275" fill="#CAAF1E" sketch:type="MSShapeGroup"></path>
            <path d="M4.956,8.95101221 L28.956,8.95101221 C30.061,8.95101221 30.956,9.84601221 30.956,10.9510122 L30.956,26.9510122 L2.956,26.9510122 L2.956,10.9510122 C2.956,9.84601221 3.852,8.95101221 4.956,8.95101221" id="Fill-276" fill="#DBC034" sketch:type="MSShapeGroup"></path>
            <path d="M1.956,26.9510122 L31.956,26.9510122 C32.509,26.9510122 32.956,27.3990122 32.956,27.9510122 L32.956,30.9510122 C32.956,31.5030122 32.509,31.9510122 31.956,31.9510122 L1.956,31.9510122 C1.404,31.9510122 0.956,31.5030122 0.956,30.9510122 L0.956,27.9510122 C0.956,27.3990122 1.404,26.9510122 1.956,26.9510122" id="Fill-277" fill="#CAAF1E" sketch:type="MSShapeGroup"></path>
            <path d="M16.956,9.95101221 C16.403,9.95101221 15.956,9.50301221 15.956,8.95101221 L15.956,1.95101221 C15.956,1.39901221 16.403,0.951012207 16.956,0.951012207 C17.509,0.951012207 17.956,1.39901221 17.956,1.95101221 L17.956,8.95101221 C17.956,9.50301221 17.509,9.95101221 16.956,9.95101221" id="Fill-278" fill="#CAAF1E" sketch:type="MSShapeGroup"></path>
            <path d="M22.956,6.95101221 L10.956,6.95101221 C10.403,6.95101221 9.956,7.39901221 9.956,7.95101221 L9.956,11.9510122 C9.956,12.5030122 10.403,12.9510122 10.956,12.9510122 L22.956,12.9510122 C23.509,12.9510122 23.956,12.5030122 23.956,11.9510122 L23.956,7.95101221 C23.956,7.39901221 23.509,6.95101221 22.956,6.95101221" id="Fill-279" fill="#CAAF1E" sketch:type="MSShapeGroup"></path>
        </g>
    </g>
</svg>