<?xml version="1.0" encoding="UTF-8" standalone="no"?>
<svg width="58px" height="35px" viewBox="0 0 58 35" version="1.1" xmlns="http://www.w3.org/2000/svg" xmlns:xlink="http://www.w3.org/1999/xlink" xmlns:sketch="http://www.bohemiancoding.com/sketch/ns">
    <!-- Generator: Sketch 3.2.2 (9983) - http://www.bohemiancoding.com/sketch -->
    <title>Path 169</title>
    <desc>Created with Sketch.</desc>
    <defs></defs>
    <g id="Page-1" stroke="none" stroke-width="1" fill="none" fill-rule="evenodd" sketch:type="MSPage">
        <path d="M29.0697633,4.65369416 C40.6995802,4.7041823 57.6056806,0.0353651077 57.6056806,0.0353651077 L57.6056806,34.6855688 C57.6056806,34.6855688 44.8811418,28.0535116 29.0697633,28.0535116 C13.2583848,28.0535116 7.84439337,31.4595137 0.75465596,34.6855688 L0.75465596,0.0353651077 C0.75465596,0.0353651077 17.1904292,4.60212279 29.0697633,4.65369416 Z M9.07385254,10.4296875 L9.07385254,22.0751953 L13.0640869,22.0751953 L13.0640869,24 L7.02600098,24 L7.02600098,10.4296875 L9.07385254,10.4296875 Z M22.494751,12.3544922 L17.0543213,12.3544922 L17.0543213,15.6152344 L22.3365479,15.6152344 L22.3365479,17.5400391 L17.0543213,17.5400391 L17.0543213,22.0751953 L22.494751,22.0751953 L22.494751,24 L15.0064697,24 L15.0064697,10.4296875 L22.494751,10.4296875 L22.494751,12.3544922 Z M33.1558838,20.7041016 L27.3463135,20.7041016 L25.8345947,24 L23.62854,24 L30.3433838,9.57714844 L36.8209229,24 L34.5797119,24 L33.1558838,20.7041016 Z M38.5172119,24 L38.5172119,9.50683594 L48.4136963,19.8603516 L48.4136963,10.4296875 L50.4615479,10.4296875 L50.4615479,24.8261719 L40.5650635,14.4990234 L40.5650635,24 L38.5172119,24 Z" id="Path-169" fill="#DBC034" sketch:type="MSShapeGroup"></path>
    </g>
</svg>