<svg viewBox="0 0 80 80">
  <title>Coder Factory Logo</title>
  <desc>The letter F inside a circle. Both elements are white.</desc>
  <defs></defs>
  <g stroke="none" stroke-width="1" fill="#fff" fill-rule="evenodd">
    <path d="M52.2713965,52.0485018 C55.8333631,56.3576081 59.3030613,60.5446824 59.6027617,60.886982 C60.2224806,61.5947874 60.4064075,64.2235761 58.3215329,66.2785831 C56.2366584,68.3335901 52.7556553,66.6733983 52.7556553,66.6733983 C52.7556553,66.6733983 33.8652322,45.9551132 32.4263117,43.0016091 C30.9873913,40.0481049 32.3352551,37.1482598 33.1730137,35.498194 C34.0107724,33.8481282 56.6909,14.4509003 56.6909,14.4509003 C56.6909,14.4509003 59.9480605,13.7500323 62.0658777,15.7731307 C64.1836949,17.796229 62.9912251,21.1071238 62.9912251,21.1071238 C62.9912251,21.1071238 45.2930048,37.0245017 44.409751,38.2570348 C43.5264971,39.4895679 43.6113547,39.6886994 43.5926165,40.3445153 C43.57228,41.0562684 43.7759229,41.6874979 44.2925269,42.3597417 C44.407509,42.509365 45.199057,43.4751365 46.3671372,44.8941432 L61.4386521,32.0516853 C61.4386521,32.0516853 64.7547945,31.058107 66.7454766,33.2631142 C68.7361588,35.4681214 67.1938389,38.8933957 67.1938389,38.8933957 L52.2713965,52.0485018 Z M33.4203688,65.476225 C33.4203688,65.476225 36.9298161,67.075412 38.9785082,64.9843319 C41.0272004,62.8932519 40.7974229,60.2680734 40.1654455,59.5711915 C39.533468,58.8743096 25.0624551,41.9770988 24.5341975,41.3139734 C24.0059399,40.650848 23.7913116,40.0232686 23.7992232,39.311269 C23.806513,38.655226 23.718193,38.4576058 24.5798016,37.2098455 C25.4414103,35.9620852 42.8591385,19.7382551 42.8591385,19.7382551 C42.8591385,19.7382551 43.9936436,16.4070531 41.840841,14.4212239 C39.6880384,12.4353947 36.4436059,13.1930011 36.4436059,13.1930011 C36.4436059,13.1930011 14.1054608,32.9830977 13.2966274,34.647533 C12.4877939,36.3119684 11.1907447,39.2348953 12.6809917,42.162837 C14.1712388,45.0907787 33.4203688,65.476225 33.4203688,65.476225 Z"></path>
    <path d="M39.6320627,79.8003702 C61.4031501,79.8003702 79.0521036,62.1514167 79.0521036,40.3803293 C79.0521036,18.6092419 61.4031501,0.960288451 39.6320627,0.960288451 C17.8609753,0.960288451 0.212021876,18.6092419 0.212021876,40.3803293 C0.212021876,62.1514167 17.8609753,79.8003702 39.6320627,79.8003702 Z M39.4750108,76.0311232 C59.251138,76.0311232 75.2828567,59.9994046 75.2828567,40.2232774 C75.2828567,20.4471502 59.251138,4.41543147 39.4750108,4.41543147 C19.6988836,4.41543147 3.6671649,20.4471502 3.6671649,40.2232774 C3.6671649,59.9994046 19.6988836,76.0311232 39.4750108,76.0311232 Z"></path>
  </g>
</svg>
