<?xml version="1.0" encoding="UTF-8" standalone="no"?>
<svg width="16px" height="16px" viewBox="0 0 16 16" version="1.1" xmlns="http://www.w3.org/2000/svg" xmlns:xlink="http://www.w3.org/1999/xlink" xmlns:sketch="http://www.bohemiancoding.com/sketch/ns">
    <!-- Generator: Sketch 3.2.2 (9983) - http://www.bohemiancoding.com/sketch -->
    <title>Path</title>
    <desc>Created with Sketch.</desc>
    <defs></defs>
    <g id="Page-1" stroke="none" stroke-width="1" fill="none" fill-rule="evenodd" sketch:type="MSPage">
        <path d="M0,8 C0,3.581722 3.59071231,0 8,0 C12.418278,0 16,3.59071231 16,8 C16,12.418278 12.4092877,16 8,16 C3.581722,16 0,12.4092877 0,8 Z M5.92582524,8.11126657 L3,5.98736181 L3,10.876164 L5.92582524,8.11126657 Z M12.9739806,5 L3.03436893,5 L8.00021845,8.60479839 L12.9739806,5 Z M9.39211165,8.60771136 L7.99978155,9.61679435 L6.60526699,8.60447727 L3.01213592,12 L12.9818204,12 L9.39211165,8.60771136 Z M10.0720146,8.11493646 L13,10.8818753 L13,5.99284371 L10.0720146,8.11493646 Z" id="Path" fill="#FFFFFF" sketch:type="MSShapeGroup"></path>
    </g>
</svg>