<?xml version="1.0" encoding="UTF-8" standalone="no"?>
<svg width="16px" height="16px" viewBox="0 0 16 16" version="1.1" xmlns="http://www.w3.org/2000/svg" xmlns:xlink="http://www.w3.org/1999/xlink" xmlns:sketch="http://www.bohemiancoding.com/sketch/ns">
    <!-- Generator: Sketch 3.2.2 (9983) - http://www.bohemiancoding.com/sketch -->
    <title>Rectangle 2</title>
    <desc>Created with Sketch.</desc>
    <defs></defs>
    <g id="Page-1" stroke="none" stroke-width="1" fill="none" fill-rule="evenodd" sketch:type="MSPage">
        <path d="M0,8 C0,3.581722 3.59071231,0 8,0 C12.418278,0 16,3.59071231 16,8 C16,12.418278 12.4092877,16 8,16 C3.581722,16 0,12.4092877 0,8 Z M5.31395117,9.304 L5.31395117,4.588 L8.66195117,4.588 C9.63395603,4.588 10.3449489,4.78899799 10.7949512,5.191 C11.2449534,5.59300201 11.4699512,6.17799616 11.4699512,6.946 C11.4699512,7.71400384 11.2449534,8.30199796 10.7949512,8.71 C10.3449489,9.11800204 9.63395603,9.31600006 8.66195117,9.304 L5.31395117,9.304 Z M3.60395117,3.148 L3.60395117,16 L5.31395121,15.5491946 L5.31395117,10.744 L9.23795117,10.744 C10.5339577,10.7560001 11.5149478,10.4260034 12.1809512,9.754 C12.8469545,9.08199664 13.1799512,8.146006 13.1799512,6.946 C13.1799512,5.745994 12.8469545,4.81300333 12.1809512,4.147 C11.5149478,3.48099667 10.5339577,3.148 9.23795117,3.148 L3.60395117,3.148 Z" id="Rectangle-2" fill="#FFFFFF" sketch:type="MSShapeGroup"></path>
    </g>
</svg>